<svg width="230" height="85" viewBox="0 0 230 85" fill="none" xmlns="http://www.w3.org/2000/svg">
<path d="M16.0699 58.043L19.3494 49.2975H53.2383L56.5179 58.043H16.0699ZM36.0752 21.7491L23.1756 52.1398L22.3011 54.1075L10.9319 81H0.546595L36.0752 0.650595L71.6039 81H61.2186L50.0681 54.7635L49.1935 52.5771L36.0752 21.7491ZM99.8253 82.0932C95.161 82.0932 91.0069 81 87.3629 78.8136C83.7918 76.5544 80.986 73.457 78.9453 69.5215C76.9776 65.586 75.9937 61.0311 75.9937 55.8566C75.9937 50.6093 77.014 46.0179 79.0547 42.0825C81.1682 38.147 84.0833 35.0861 87.8002 32.8997C91.5899 30.7133 95.9626 29.6201 100.918 29.6201C105.874 29.6201 110.101 30.6769 113.599 32.7904C117.171 34.831 119.903 37.7826 121.798 41.6452C123.693 45.5078 124.641 50.0992 124.641 55.4194C124.641 55.9295 124.604 56.4761 124.531 57.0592C124.531 57.5693 124.531 57.8973 124.531 58.043H81.569V50.6093H117.644L114.146 55.638C114.365 55.2736 114.583 54.727 114.802 53.9982C115.021 53.1966 115.13 52.5406 115.13 52.0305C115.13 49.0424 114.51 46.4552 113.271 44.2688C112.105 42.0825 110.466 40.3698 108.352 39.1309C106.239 37.8919 103.761 37.2724 100.918 37.2724C97.566 37.2724 94.6873 38.0012 92.2822 39.4588C89.9501 40.8435 88.1281 42.8841 86.8163 45.5807C85.5774 48.2043 84.9214 51.4475 84.8486 55.3101C84.8486 59.2455 85.468 62.598 86.707 65.3674C87.9459 68.1368 89.7679 70.2503 92.1729 71.7079C94.5779 73.1655 97.4931 73.8943 100.918 73.8943C104.344 73.8943 107.368 73.1655 109.992 71.7079C112.616 70.1774 114.838 67.8817 116.66 64.8208L123.766 69.3029C121.142 73.5299 117.826 76.7366 113.818 78.9229C109.883 81.0364 105.218 82.0932 99.8253 82.0932ZM126.827 30.7133H136.666L150.877 66.2419L165.089 30.7133H174.927L150.877 84.8262L126.827 30.7133ZM177.199 55.8566C177.199 50.7551 178.329 46.2366 180.588 42.3011C182.92 38.3656 186.054 35.2683 189.989 33.009C193.925 30.7497 198.334 29.6201 203.217 29.6201C208.173 29.6201 212.582 30.7497 216.445 33.009C220.38 35.2683 223.477 38.3656 225.737 42.3011C228.069 46.2366 229.235 50.7551 229.235 55.8566C229.235 60.8853 228.069 65.4038 225.737 69.4122C223.477 73.3477 220.38 76.445 216.445 78.7043C212.582 80.9636 208.173 82.0932 203.217 82.0932C198.334 82.0932 193.925 80.9636 189.989 78.7043C186.054 76.445 182.92 73.3477 180.588 69.4122C178.329 65.4038 177.199 60.8853 177.199 55.8566ZM186.054 55.8566C186.054 59.3549 186.783 62.4522 188.24 65.1488C189.771 67.8453 191.811 69.9952 194.362 71.5986C196.986 73.129 199.937 73.8943 203.217 73.8943C206.497 73.8943 209.412 73.129 211.963 71.5986C214.586 69.9952 216.627 67.8453 218.084 65.1488C219.615 62.4522 220.38 59.3549 220.38 55.8566C220.38 52.3584 219.615 49.2611 218.084 46.5645C216.627 43.7951 214.586 41.6452 211.963 40.1147C209.412 38.5843 206.497 37.819 203.217 37.819C199.937 37.819 196.986 38.5843 194.362 40.1147C191.811 41.6452 189.771 43.7951 188.24 46.5645C186.783 49.2611 186.054 52.3584 186.054 55.8566Z" fill="white"/>
</svg>
