<svg width="147" height="55" viewBox="0 0 147 55" fill="none" xmlns="http://www.w3.org/2000/svg">
<path d="M10.2505 37.3564L12.3425 31.7779H33.9592L36.0512 37.3564H10.2505ZM23.0114 14.2055L14.7831 33.5909L14.2252 34.8461L6.97315 52H0.348658L23.0114 0.747347L45.6741 52H39.0496L31.937 35.2644L31.3792 33.8698L23.0114 14.2055ZM63.6758 52.6973C60.7005 52.6973 58.0507 52 55.7264 50.6054C53.4485 49.1643 51.6587 47.1885 50.357 44.6782C49.1019 42.1679 48.4743 39.2624 48.4743 35.9618C48.4743 32.6146 49.1251 29.6859 50.4268 27.1756C51.7749 24.6653 53.6344 22.7128 56.0053 21.3181C58.4226 19.9235 61.2119 19.2262 64.3731 19.2262C67.5342 19.2262 70.2305 19.9003 72.4619 21.2484C74.7398 22.5501 76.4831 24.4328 77.6918 26.8967C78.9005 29.3605 79.5048 32.2892 79.5048 35.6828C79.5048 36.0082 79.4816 36.3569 79.4351 36.7288C79.4351 37.0542 79.4351 37.2634 79.4351 37.3564H52.0306V32.6146H75.042L72.8106 35.8223C72.95 35.5899 73.0895 35.2412 73.229 34.7763C73.3684 34.265 73.4382 33.8466 73.4382 33.5212C73.4382 31.6152 73.043 29.9648 72.2527 28.5702C71.5089 27.1756 70.463 26.0831 69.1148 25.2928C67.7667 24.5025 66.1861 24.1074 64.3731 24.1074C62.2346 24.1074 60.3984 24.5723 58.8643 25.502C57.3767 26.3853 56.2145 27.6869 55.3777 29.407C54.5874 31.0805 54.169 33.1493 54.1225 35.6131C54.1225 38.1234 54.5177 40.2619 55.308 42.0284C56.0983 43.7949 57.2605 45.1431 58.7945 46.0728C60.3286 47.0026 62.1881 47.4675 64.3731 47.4675C66.558 47.4675 68.4872 47.0026 70.1608 46.0728C71.8343 45.0966 73.2522 43.6322 74.4144 41.6797L78.947 44.5387C77.2734 47.235 75.1582 49.2805 72.6014 50.6751C70.0911 52.0232 67.1158 52.6973 63.6758 52.6973ZM80.8994 19.9235H87.1753L96.2404 42.5862L105.305 19.9235H111.581L96.2404 54.4406L80.8994 19.9235ZM113.03 35.9618C113.03 32.7076 113.751 29.8254 115.192 27.315C116.68 24.8047 118.679 22.829 121.189 21.3879C123.699 19.9468 126.512 19.2262 129.626 19.2262C132.788 19.2262 135.6 19.9468 138.064 21.3879C140.574 22.829 142.55 24.8047 143.991 27.315C145.479 29.8254 146.223 32.7076 146.223 35.9618C146.223 39.1694 145.479 42.0516 143.991 44.6085C142.55 47.1188 140.574 49.0945 138.064 50.5356C135.6 51.9768 132.788 52.6973 129.626 52.6973C126.512 52.6973 123.699 51.9768 121.189 50.5356C118.679 49.0945 116.68 47.1188 115.192 44.6085C113.751 42.0516 113.03 39.1694 113.03 35.9618ZM118.679 35.9618C118.679 38.1932 119.144 40.1689 120.073 41.8889C121.05 43.609 122.351 44.9804 123.978 46.0031C125.652 46.9793 127.535 47.4675 129.626 47.4675C131.718 47.4675 133.578 46.9793 135.205 46.0031C136.879 44.9804 138.18 43.609 139.11 41.8889C140.086 40.1689 140.574 38.1932 140.574 35.9618C140.574 33.7303 140.086 31.7546 139.11 30.0346C138.18 28.268 136.879 26.8967 135.205 25.9204C133.578 24.9442 131.718 24.4561 129.626 24.4561C127.535 24.4561 125.652 24.9442 123.978 25.9204C122.351 26.8967 121.05 28.268 120.073 30.0346C119.144 31.7546 118.679 33.7303 118.679 35.9618Z" fill="#18313C"/>
</svg>
