<svg width="37" height="30" viewBox="0 0 37 30" fill="none" xmlns="http://www.w3.org/2000/svg">
<path d="M34.5482 0C35.6576 0 36.4944 0.966603 36.0468 2.76448L30.6167 28.1861C30.2372 29.9937 29.1376 30.4286 27.6195 29.5877L14.6671 20.086C14.6169 20.0502 14.576 20.003 14.5478 19.9484C14.5195 19.8938 14.5048 19.8333 14.5048 19.7719C14.5048 19.7104 14.5195 19.6499 14.5478 19.5953C14.576 19.5407 14.6169 19.4935 14.6671 19.4577L29.6242 6.04127C30.3053 5.44197 29.4782 5.15199 28.5829 5.69329L9.81123 17.4568C9.7543 17.4937 9.68966 17.5172 9.62222 17.5256C9.55477 17.534 9.48629 17.527 9.42198 17.5052L1.45204 15.0017C-0.319054 14.4894 -0.319054 13.2811 1.85103 12.4208L33.7405 0.202987C33.9934 0.0824716 34.268 0.0134539 34.5482 0Z" fill="white"/>
</svg>
