<svg width="67" height="67" viewBox="0 0 67 67" fill="none" xmlns="http://www.w3.org/2000/svg">
<g clip-path="url(#clip0_4_92)">
<path d="M52.4344 4.00411C52.0892 4.0451 51.7801 4.22441 51.5689 4.49595L47.6948 9.33231C46.9427 8.39476 45.8042 7.77484 44.5214 7.77484H39.2461C37.5151 7.77484 36.0366 8.90196 35.4544 10.4389H22.6783C20.5352 7.32399 16.9342 5.27468 12.8695 5.27468C6.33199 5.27468 1 10.5773 1 17.0787C1 21.121 3.06067 24.7021 6.1929 26.8334C6.20835 26.8437 6.21865 26.8642 6.23411 26.8744C6.23411 26.8898 6.23411 26.9 6.23411 26.9154L20.4528 53.7204H10.067C7.89295 53.7204 6.1929 55.5852 6.1929 57.737V65.6063C6.18774 65.9752 6.33714 66.3339 6.59988 66.5951C6.86262 66.8564 7.22323 67.005 7.59415 66.9999H52.4344C52.8053 67.005 53.1659 66.8564 53.4287 66.5951C53.6914 66.3339 53.8408 65.9752 53.8357 65.6063V57.737C53.8357 55.5852 52.1356 53.7204 49.9616 53.7204H40.4413L23.3789 23.7185H35.4544C36.0366 25.2554 37.5151 26.3826 39.2461 26.3826H44.5214C45.8042 26.3826 46.9427 25.7627 47.6948 24.8251L51.5689 29.6615C51.9553 30.143 52.6302 30.2814 53.1762 29.9894L66.2409 22.8987C66.787 22.6067 67.0394 21.9714 66.8488 21.3874C66.653 20.7982 66.0709 20.4396 65.4578 20.5215C65.2981 20.5472 65.1436 20.6035 65.0045 20.6855L52.929 27.2843L48.6015 21.8331V12.3653L52.929 6.91413L65.0045 13.4719C65.4063 13.7435 65.9267 13.7639 66.3491 13.5283C66.7715 13.2926 67.024 12.8418 66.9982 12.3602C66.9776 11.8786 66.6839 11.4534 66.2409 11.2587L53.1762 4.16806C52.9496 4.03997 52.692 3.98362 52.4344 4.00411ZM12.8695 7.8978C16.1408 7.8978 19.0206 9.57823 20.6588 12.1194C20.6743 12.145 20.6846 12.1757 20.7 12.2013C20.7258 12.2577 20.7515 12.3141 20.7825 12.3653C20.8134 12.4524 20.8546 12.5344 20.9061 12.6112C20.9267 12.6471 20.9679 12.6573 20.9885 12.6932C21.0143 12.7342 21.04 12.7752 21.071 12.8161C21.7355 14.0867 22.1013 15.5417 22.1013 17.0787C22.1013 18.6003 21.7252 20.04 21.071 21.3003C21.0606 21.3157 21.04 21.3259 21.0297 21.3413C21.0143 21.3669 20.9988 21.3976 20.9885 21.4232C20.9834 21.4335 20.9937 21.454 20.9885 21.4642C20.9576 21.4898 20.9319 21.5155 20.9061 21.5462C20.8185 21.6589 20.7515 21.7819 20.7 21.9151C20.6846 21.9561 20.6691 21.997 20.6588 22.038C19.0206 24.5792 16.1408 26.2596 12.8695 26.2596C7.75901 26.2596 3.63766 22.161 3.63766 17.0787C3.63766 11.9964 7.75901 7.8978 12.8695 7.8978ZM12.8695 9.6602C12.7819 9.6602 12.7098 9.69607 12.6222 9.70119C12.5398 9.72168 12.4522 9.7473 12.3749 9.78316C8.52661 10.0547 5.40984 13.185 5.40984 17.0787C5.40984 21.1466 8.77904 24.4972 12.8695 24.4972C16.9599 24.4972 20.3291 21.1466 20.3291 17.0787C20.3291 13.2004 17.233 10.0752 13.4053 9.78316C13.3898 9.78316 13.3795 9.74218 13.364 9.74218C13.2713 9.71656 13.1734 9.70631 13.0755 9.70119C13.0034 9.70119 12.9416 9.6602 12.8695 9.6602ZM39.2461 10.6439H44.5214C45.1963 10.6439 45.7166 11.1613 45.7166 11.8325V22.3249C45.7166 22.9961 45.1963 23.5135 44.5214 23.5135H39.2461C38.5712 23.5135 38.0509 22.9961 38.0509 22.3249V11.8325C38.0509 11.1613 38.5712 10.6439 39.2461 10.6439ZM12.787 12.2833C12.8128 12.2833 12.8437 12.2833 12.8695 12.2833C15.5277 12.2833 17.6915 14.4351 17.6915 17.0787C17.6915 19.7223 15.5277 21.8741 12.8695 21.8741C10.2112 21.8741 8.0475 19.7223 8.0475 17.0787C8.0475 14.4607 10.1648 12.3294 12.787 12.2833ZM24.0795 13.226H35.166V20.9314H24.0795C24.502 19.7172 24.739 18.4312 24.739 17.0787C24.739 15.7262 24.502 14.4402 24.0795 13.226ZM21.277 25.3579L37.3915 53.7204H23.3789L10.0257 28.5138C10.9427 28.7393 11.8855 28.8827 12.8695 28.8827C16.1614 28.8827 19.1236 27.5199 21.277 25.3579ZM10.067 56.5074H22.2249C22.5546 56.6457 22.9256 56.6457 23.2553 56.5074H49.9616C50.5334 56.5074 51.0331 56.9992 51.0331 57.737V64.2128H8.99541V57.737C8.99541 56.9992 9.49512 56.5074 10.067 56.5074Z" fill="#18313C" stroke="#18313C"/>
</g>
<defs>
<clipPath id="clip0_4_92">
<rect width="67" height="67" fill="white"/>
</clipPath>
</defs>
</svg>
