<svg width="66" height="66" viewBox="0 0 66 66" fill="none" xmlns="http://www.w3.org/2000/svg">
<path d="M50.8716 21.6562H47.4375V18.5625C47.4375 16.9215 46.7856 15.3477 45.6252 14.1873C44.4648 13.0269 42.891 12.375 41.25 12.375H8.25C6.60897 12.375 5.03516 13.0269 3.87478 14.1873C2.7144 15.3477 2.0625 16.9215 2.0625 18.5625V43.3125C2.0625 44.9535 2.7144 46.5273 3.87478 47.6877C5.03516 48.8481 6.60897 49.5 8.25 49.5H11.0138C10.4898 50.6003 10.2529 51.8154 10.3252 53.032C10.3975 54.2486 10.7767 55.4271 11.4274 56.4576C12.078 57.4881 12.979 58.3371 14.0463 58.9255C15.1136 59.5138 16.3125 59.8224 17.5312 59.8224C18.75 59.8224 19.9489 59.5138 21.0162 58.9255C22.0835 58.3371 22.9845 57.4881 23.6351 56.4576C24.2858 55.4271 24.665 54.2486 24.7373 53.032C24.8096 51.8154 24.5727 50.6003 24.0487 49.5H38.8575C38.3335 50.6003 38.0966 51.8154 38.169 53.032C38.2413 54.2486 38.6205 55.4271 39.2711 56.4576C39.9218 57.4881 40.8228 58.3371 41.8901 58.9255C42.9574 59.5138 44.1563 59.8224 45.375 59.8224C46.5937 59.8224 47.7926 59.5138 48.8599 58.9255C49.9272 58.3371 50.8282 57.4881 51.4789 56.4576C52.1295 55.4271 52.5087 54.2486 52.581 53.032C52.6534 51.8154 52.4165 50.6003 51.8925 49.5H57.75C59.391 49.5 60.9648 48.8481 62.1252 47.6877C63.2856 46.5273 63.9375 44.9535 63.9375 43.3125V34.0312C63.9375 27.2044 58.08 21.6562 50.8716 21.6562ZM6.1875 43.3125V18.5625C6.1875 18.0155 6.4048 17.4909 6.79159 17.1041C7.17839 16.7173 7.70299 16.5 8.25 16.5H41.25C41.797 16.5 42.3216 16.7173 42.7084 17.1041C43.0952 17.4909 43.3125 18.0155 43.3125 18.5625V45.375H8.25C7.70299 45.375 7.17839 45.1577 6.79159 44.7709C6.4048 44.3841 6.1875 43.8595 6.1875 43.3125ZM20.625 52.5938C20.625 53.2056 20.4436 53.8038 20.1036 54.3125C19.7637 54.8213 19.2805 55.2178 18.7152 55.452C18.1499 55.6862 17.5278 55.7474 16.9277 55.6281C16.3276 55.5087 15.7763 55.214 15.3436 54.7814C14.911 54.3487 14.6163 53.7974 14.4969 53.1973C14.3776 52.5972 14.4388 51.9751 14.673 51.4098C14.9072 50.8445 15.3037 50.3613 15.8125 50.0214C16.3212 49.6814 16.9194 49.5 17.5312 49.5C18.3518 49.5 19.1387 49.826 19.7189 50.4061C20.2991 50.9863 20.625 51.7732 20.625 52.5938ZM48.4688 52.5938C48.4688 53.2056 48.2873 53.8038 47.9474 54.3125C47.6074 54.8213 47.1242 55.2178 46.5589 55.452C45.9936 55.6862 45.3716 55.7474 44.7714 55.6281C44.1713 55.5087 43.6201 55.214 43.1874 54.7814C42.7547 54.3487 42.4601 53.7974 42.3407 53.1973C42.2213 52.5972 42.2826 51.9751 42.5168 51.4098C42.7509 50.8445 43.1474 50.3613 43.6562 50.0214C44.165 49.6814 44.7631 49.5 45.375 49.5C46.1955 49.5 46.9824 49.826 47.5626 50.4061C48.1428 50.9863 48.4688 51.7732 48.4688 52.5938ZM59.8125 43.3125C59.8125 43.8595 59.5952 44.3841 59.2084 44.7709C58.8216 45.1577 58.297 45.375 57.75 45.375H47.4375V25.7812H50.8716C55.8009 25.7812 59.8125 29.4834 59.8125 34.0312V43.3125Z" fill="#18313C"/>
</svg>
