<svg width="66" height="66" viewBox="0 0 66 66" fill="none" xmlns="http://www.w3.org/2000/svg">
<path fill-rule="evenodd" clip-rule="evenodd" d="M33.0006 7.5625C23.5081 7.5625 15.813 15.2576 15.813 24.75C15.813 34.2425 23.5081 41.9375 33.0006 41.9375C42.493 41.9375 50.1881 34.2425 50.1881 24.75C50.1881 15.2576 42.493 7.5625 33.0006 7.5625ZM11.688 24.75C11.688 12.9794 21.23 3.4375 33.0006 3.4375C44.7711 3.4375 54.3131 12.9794 54.3131 24.75C54.3131 27.3377 53.8519 29.8177 53.0071 32.1123L59.2971 38.6248C60.0047 39.3574 60.5943 39.968 61.0346 40.4764C61.4686 40.9775 61.9132 41.5503 62.1758 42.2161C63.0927 44.5393 62.3551 47.2887 60.1436 48.6428C59.5078 49.0319 58.7835 49.1934 58.1606 49.2976C57.5239 49.4043 56.7149 49.4898 55.7604 49.5908L55.6963 49.5976C54.4335 49.731 54.1937 49.7736 54.0306 49.8361C53.5408 50.0239 53.1385 50.4237 52.9394 50.9812C52.8693 51.1772 52.8264 51.4569 52.6985 52.7535L52.6925 52.8146C52.5946 53.8076 52.5124 54.6398 52.4103 55.2929C52.3111 55.9292 52.1598 56.6527 51.7968 57.2883C50.5062 59.5485 47.7854 60.3963 45.4253 59.3978C44.7609 59.1167 44.1986 58.6462 43.7184 58.2002C43.227 57.7439 42.6374 57.1334 41.9301 56.4011L41.8762 56.3453L33.0006 46.9956L24.1126 56.3582L24.071 56.4011C23.3636 57.1334 22.7742 57.7439 22.2827 58.2002C21.8024 58.6462 21.2401 59.1167 20.5758 59.3978C18.2157 60.3963 15.4949 59.5485 14.2042 57.2883C13.8414 56.6527 13.69 55.9292 13.5907 55.2929C13.4887 54.6398 13.4066 53.8076 13.3087 52.8146L13.3026 52.7535C13.1747 51.4569 13.1319 51.1772 13.0617 50.9812C12.8625 50.4237 12.4602 50.0239 11.9704 49.8361C11.8074 49.7736 11.5675 49.731 10.3048 49.5976L10.2408 49.5908C9.28612 49.4898 8.4771 49.4043 7.84034 49.2976C7.21771 49.1934 6.49336 49.0319 5.85745 48.6428C3.64593 47.2887 2.90832 44.5393 3.8252 42.2161C4.08791 41.5503 4.53261 40.9775 4.96645 40.4764C5.40686 39.968 5.99635 39.3574 6.70412 38.6246L12.9939 32.1123C12.1492 29.8177 11.688 27.3377 11.688 24.75ZM14.9264 36.0492L9.71224 41.448C8.95293 42.2339 8.4427 42.7633 8.08468 43.1769C7.74923 43.5641 7.67083 43.714 7.66261 43.7299C7.41434 44.3594 7.66087 44.8927 7.98818 45.1099C8.01271 45.1179 8.15266 45.1677 8.52146 45.2293C9.01968 45.3126 9.70264 45.3857 10.7386 45.4955C10.8079 45.5026 10.8767 45.51 10.9449 45.5172C11.8775 45.6145 12.7091 45.7017 13.4468 45.9844C15.094 46.6158 16.3541 47.9369 16.9459 49.5924C17.2107 50.3327 17.2923 51.1679 17.3875 52.1422C17.3941 52.2101 17.4009 52.2792 17.4077 52.3485C17.5133 53.4185 17.5845 54.1332 17.6663 54.6565C17.7362 55.1045 17.7926 55.248 17.7945 55.2568C18.014 55.6262 18.4652 55.8091 18.963 55.6009C18.963 55.6009 19.1006 55.5258 19.4761 55.1771C19.8739 54.8078 20.3832 54.2817 21.1392 53.4988L21.1455 53.4924L28.6253 45.6129C22.8618 44.4106 17.9526 40.8798 14.9264 36.0492ZM37.3755 45.6129C43.1393 44.4106 48.0483 40.8798 51.0746 36.0492L56.2889 41.448C57.0482 42.2339 57.5583 42.7633 57.9164 43.1769C58.2519 43.5641 58.3303 43.714 58.3385 43.7299C58.5866 44.3594 58.3402 44.8927 58.0129 45.1099C57.9884 45.1179 57.8484 45.1677 57.4797 45.2293C56.9814 45.3126 56.2983 45.3857 55.2624 45.4955C55.1931 45.5026 55.1243 45.51 55.0561 45.5172C54.1236 45.6145 53.292 45.7017 52.5544 45.9844C50.9072 46.6158 49.6469 47.9369 49.055 49.5924C48.7905 50.3327 48.7088 51.1679 48.6137 52.1422C48.6068 52.2101 48.6002 52.2792 48.5933 52.3485C48.4877 53.4185 48.4165 54.1332 48.3348 54.6565C48.2647 55.1045 48.2086 55.248 48.2064 55.2568C47.9861 55.6275 47.5327 55.8101 47.0327 55.5987L47.0382 55.6011C47.0382 55.6011 46.9004 55.5258 46.5251 55.1771C46.1271 54.8078 45.6178 54.2817 44.8619 53.4988L44.8555 53.4924L37.3755 45.6129ZM33.0006 19.3448C32.8408 19.6216 32.6629 19.9403 32.4533 20.3161L32.183 20.8011C32.164 20.8354 32.1434 20.8727 32.1217 20.9128C31.9058 21.3077 31.548 21.9618 30.9518 22.4145C30.343 22.8766 29.6106 23.0356 29.1825 23.1286C29.1396 23.1379 29.0997 23.1466 29.0634 23.1548L28.5384 23.2736C28.0566 23.3826 27.6642 23.4715 27.3287 23.5558C27.5468 23.8245 27.8303 24.158 28.1991 24.5892L28.5571 25.0077C28.5824 25.0374 28.6099 25.0692 28.6393 25.1031C28.9363 25.445 29.4154 25.997 29.637 26.7097C29.8562 27.4139 29.7806 28.1391 29.733 28.5967C29.7281 28.6423 29.7237 28.6852 29.7198 28.7254L29.6656 29.2839C29.6156 29.8015 29.5765 30.2148 29.5504 30.5508C29.837 30.4246 30.1631 30.2745 30.5503 30.0963L31.042 29.87C31.0758 29.8543 31.113 29.837 31.1528 29.818C31.5475 29.6318 32.2341 29.3081 33.0006 29.3081C33.767 29.3081 34.4534 29.6318 34.848 29.818C34.8882 29.837 34.9253 29.8543 34.9591 29.87L35.4508 30.0963C35.838 30.2745 36.1639 30.4246 36.4504 30.5508C36.4246 30.2148 36.3855 29.8015 36.3355 29.2839L36.2813 28.7254C36.2775 28.6852 36.2731 28.6423 36.2681 28.5967C36.2205 28.1391 36.1449 27.4139 36.3641 26.7097C36.5855 25.997 37.0648 25.445 37.3615 25.1031C37.3909 25.0692 37.4187 25.0374 37.444 25.0077L37.8021 24.5892C38.1706 24.158 38.4541 23.8245 38.6724 23.5558C38.3369 23.4715 37.9445 23.3826 37.4627 23.2736L36.9377 23.1548C36.9014 23.1466 36.8616 23.1379 36.8187 23.1286C36.3905 23.0356 35.6582 22.8766 35.0493 22.4145C34.4531 21.9618 34.0953 21.3078 33.8795 20.9128C33.8575 20.8728 33.8371 20.8354 33.8181 20.8011L33.5475 20.3161C33.3383 19.9403 33.1603 19.6216 33.0006 19.3448ZM30.2877 15.949C30.7612 15.3307 31.6209 14.4375 33.0006 14.4375C34.3802 14.4375 35.2399 15.3307 35.7134 15.949C36.1653 16.5391 36.6204 17.3559 37.0871 18.1934C37.1082 18.2314 37.1294 18.2695 37.1506 18.3077L37.4209 18.7926C37.4836 18.9051 37.5331 18.9936 37.5763 19.0693C37.6514 19.087 37.7388 19.1068 37.848 19.1315L38.373 19.2503C38.4161 19.26 38.459 19.2697 38.5019 19.2794C39.4037 19.4831 40.2993 19.6856 40.9871 19.9566C41.7467 20.2559 42.776 20.8387 43.1725 22.1144C43.5625 23.3677 43.0705 24.4292 42.641 25.1115C42.2436 25.743 41.6394 26.4491 41.0209 27.172C40.9929 27.2047 40.9648 27.2374 40.9371 27.2702L40.579 27.6886C40.4841 27.7995 40.4126 27.8834 40.3524 27.9557C40.3607 28.0555 40.3719 28.1718 40.3871 28.3275L40.4412 28.886C40.4454 28.9286 40.4495 28.971 40.4536 29.0136C40.5477 29.9813 40.6384 30.9166 40.6051 31.6649C40.5702 32.4492 40.3818 33.6366 39.317 34.4449C38.2187 35.2787 37.0057 35.0971 36.2365 34.8766C35.5275 34.6736 34.6902 34.2875 33.8467 33.899C33.8063 33.8803 33.7659 33.8618 33.7255 33.8431L33.234 33.6168C33.1419 33.5745 33.0663 33.5398 33.0006 33.5098C32.9346 33.5398 32.8592 33.5745 32.7671 33.6168L32.2757 33.8431C32.2352 33.8618 32.1948 33.8803 32.1544 33.899C31.311 34.2875 30.4733 34.6736 29.7646 34.8766C28.9955 35.0971 27.7824 35.2787 26.6839 34.4449C25.6192 33.6366 25.431 32.4492 25.396 31.6649C25.3627 30.9166 25.4535 29.9813 25.5475 29.0136C25.5516 28.971 25.5558 28.9286 25.5599 28.886L25.614 28.3275C25.6291 28.1718 25.6403 28.0555 25.6485 27.9557C25.5883 27.8834 25.5168 27.7995 25.422 27.6886L25.0641 27.2702C25.0361 27.2374 25.0081 27.2047 24.9802 27.172C24.3617 26.4491 23.7575 25.743 23.36 25.1115C22.9305 24.4292 22.4387 23.3677 22.8284 22.1144C23.2252 20.8387 24.2545 20.2559 25.0139 19.9566C25.7016 19.6856 26.5975 19.4831 27.499 19.2794C27.5421 19.2697 27.585 19.26 27.6279 19.2503L28.1529 19.1315C28.2623 19.1068 28.3498 19.087 28.4248 19.0693C28.468 18.9936 28.5172 18.9051 28.5799 18.7926L28.8503 18.3077C28.8717 18.2695 28.8929 18.2314 28.9141 18.1933C29.3807 17.3559 29.8359 16.5391 30.2877 15.949Z" fill="#18313C"/>
</svg>
