<svg width="66" height="66" viewBox="0 0 66 66" fill="none" xmlns="http://www.w3.org/2000/svg">
<g clip-path="url(#clip0_4_103)">
<path d="M26.8125 55.0027C26.8108 53.3392 27.3578 51.7215 28.3689 50.4005C29.3799 49.0794 30.7985 48.1287 32.4047 47.6957C34.0109 47.2628 35.7151 47.3717 37.2532 48.0057C38.7912 48.6396 40.0771 49.7632 40.9118 51.2022C46.6592 48.6667 48.8125 44.6875 48.8125 37.125V28.875C48.8125 17.897 42.6222 10.3125 33 10.3125C23.3778 10.3125 17.1875 17.8997 17.1875 28.875V38.5C17.1868 39.0468 16.9692 39.571 16.5826 39.9576C16.196 40.3442 15.6718 40.5618 15.125 40.5625H12.375C10.3704 40.5603 8.44858 39.7632 7.03089 38.3461C5.61319 36.9289 4.81541 35.0073 4.8125 33.0028L4.8125 30.2528C4.81468 28.2475 5.61206 26.3249 7.02975 24.9067C8.44744 23.4885 10.3697 22.6904 12.375 22.6875H13.6895C15.7712 12.8672 22.8965 6.1875 33 6.1875C43.1035 6.1875 50.226 12.8672 52.3078 22.6875H53.6223C55.6271 22.6904 57.5489 23.4881 58.9665 24.9057C60.3841 26.3233 61.1818 28.2452 61.1848 30.25V33C61.1826 35.005 60.3851 36.9273 58.9673 38.3451C57.5496 39.7629 55.6273 40.5603 53.6223 40.5625H52.7725C52.6664 43.8196 51.5736 46.9677 49.6388 49.59C47.704 52.2123 45.0184 54.1852 41.9375 55.2475C41.905 57.2532 41.0772 59.1639 39.636 60.5592C38.1948 61.9544 36.2583 62.7201 34.2526 62.6876C32.2469 62.6552 30.3363 61.8273 28.941 60.3861C27.5457 58.9449 26.78 57.0084 26.8125 55.0027ZM30.9375 55.0027C30.9375 55.6826 31.1391 56.3472 31.5168 56.9125C31.8945 57.4778 32.4314 57.9184 33.0595 58.1786C33.6876 58.4388 34.3788 58.5068 35.0456 58.3742C35.7124 58.2416 36.3249 57.9142 36.8057 57.4334C37.2864 56.9527 37.6138 56.3402 37.7464 55.6734C37.8791 55.0066 37.811 54.3154 37.5508 53.6873C37.2907 53.0592 36.8501 52.5223 36.2848 52.1446C35.7195 51.7669 35.0549 51.5652 34.375 51.5652C33.4635 51.566 32.5896 51.9284 31.9451 52.5729C31.3006 53.2174 30.9382 54.0913 30.9375 55.0027ZM52.9375 36.4403H53.6223C54.5342 36.4403 55.4088 36.0782 56.0539 35.4336C56.699 34.789 57.0618 33.9147 57.0625 33.0028V30.2528C57.0625 29.3408 56.7004 28.4662 56.0558 27.8211C55.4113 27.176 54.5369 26.8132 53.625 26.8125H52.9375V36.4403ZM8.9375 30.2528V33.0028C8.93896 33.9137 9.30168 34.7869 9.9461 35.4308C10.5905 36.0748 11.464 36.4368 12.375 36.4375H13.0625V26.8125H12.375C11.4631 26.8132 10.5887 27.176 9.94415 27.8211C9.29958 28.4662 8.9375 29.3408 8.9375 30.2528Z" fill="#18313C"/>
</g>
<defs>
<clipPath id="clip0_4_103">
<rect width="66" height="66" fill="white"/>
</clipPath>
</defs>
</svg>
